<svg width="20" height="21" viewBox="0 0 20 21" fill="none" xmlns="http://www.w3.org/2000/svg">
<path d="M11 10.9987H9C6.61305 10.9987 4.32387 11.9469 2.63604 13.6348C0.948211 15.3226 0 17.6118 0 19.9987C0 20.2639 0.105357 20.5183 0.292893 20.7058C0.48043 20.8934 0.734784 20.9987 1 20.9987H19C19.2652 20.9987 19.5196 20.8934 19.7071 20.7058C19.8946 20.5183 20 20.2639 20 19.9987C20 17.6118 19.0518 15.3226 17.364 13.6348C15.6761 11.9469 13.3869 10.9987 11 10.9987ZM2.07 18.9987C2.31051 17.3324 3.14351 15.8086 4.41631 14.7066C5.68911 13.6046 7.31643 12.9983 9 12.9987H11C12.6836 12.9983 14.3109 13.6046 15.5837 14.7066C16.8565 15.8086 17.6895 17.3324 17.93 18.9987H2.07ZM15 5.99872C15 5.00981 14.7068 4.04312 14.1573 3.22087C13.6079 2.39862 12.827 1.75776 11.9134 1.37932C10.9998 1.00088 9.99445 0.901868 9.02455 1.09479C8.05464 1.28772 7.16373 1.76392 6.46447 2.46319C5.7652 3.16245 5.289 4.05336 5.09607 5.02327C4.90315 5.99317 5.00216 6.99851 5.3806 7.91214C5.75904 8.82577 6.3999 9.60666 7.22215 10.1561C8.04439 10.7055 9.01109 10.9987 10 10.9987C10.6566 10.9987 11.3068 10.8694 11.9134 10.6181C12.52 10.3668 13.0712 9.99855 13.5355 9.53425C13.9998 9.06996 14.3681 8.51877 14.6194 7.91214C14.8707 7.30551 15 6.65533 15 5.99872ZM10 8.99872C9.40666 8.99872 8.82664 8.82277 8.33329 8.49313C7.83994 8.16349 7.45542 7.69495 7.22836 7.14677C7.0013 6.59859 6.94189 5.99539 7.05764 5.41345C7.1734 4.83151 7.45912 4.29696 7.87868 3.8774C8.29824 3.45784 8.83279 3.17212 9.41473 3.05636C9.99667 2.94061 10.5999 3.00002 11.1481 3.22708C11.6962 3.45414 12.1648 3.83866 12.4944 4.33201C12.8241 4.82536 13 5.40538 13 5.99872C13 6.79437 12.6839 7.55743 12.1213 8.12004C11.5587 8.68265 10.7956 8.99872 10 8.99872Z" fill="#231F20"/>
</svg>
